<mxfile host="app.diagrams.net" modified="2024-05-14T10:33:17.096Z" agent="Mozilla/5.0 (Windows NT 10.0; Win64; x64) AppleWebKit/537.36 (KHTML, like Gecko) Chrome/124.0.0.0 Safari/537.36" etag="Q1dzlFhE73Sgs4l9MV-j" version="24.4.0" type="google" pages="3">
  <diagram name="authors" id="vKIRbLlq_2UMo0ECpTmI">
    <mxGraphModel dx="1695" dy="2111" grid="1" gridSize="10" guides="1" tooltips="1" connect="1" arrows="1" fold="1" page="1" pageScale="1" pageWidth="827" pageHeight="1169" math="0" shadow="0">
      <root>
        <mxCell id="0" />
        <mxCell id="1" parent="0" />
        <mxCell id="K7dTfTRii8d-ZvlL10lm-1" style="edgeStyle=none;curved=1;rounded=0;orthogonalLoop=1;jettySize=auto;html=1;exitX=0;exitY=1;exitDx=0;exitDy=0;fontSize=12;startSize=8;endSize=8;" edge="1" parent="1" source="K7dTfTRii8d-ZvlL10lm-2" target="K7dTfTRii8d-ZvlL10lm-4">
          <mxGeometry relative="1" as="geometry" />
        </mxCell>
        <mxCell id="K7dTfTRii8d-ZvlL10lm-2" value="&lt;font style=&quot;font-size: 16px;&quot;&gt;author 1&lt;/font&gt;" style="ellipse;whiteSpace=wrap;html=1;aspect=fixed;" vertex="1" parent="1">
          <mxGeometry x="140" width="80" height="80" as="geometry" />
        </mxCell>
        <mxCell id="K7dTfTRii8d-ZvlL10lm-3" style="edgeStyle=none;curved=1;rounded=0;orthogonalLoop=1;jettySize=auto;html=1;exitX=0;exitY=1;exitDx=0;exitDy=0;fontSize=12;startSize=8;endSize=8;" edge="1" parent="1" source="K7dTfTRii8d-ZvlL10lm-4" target="K7dTfTRii8d-ZvlL10lm-18">
          <mxGeometry relative="1" as="geometry" />
        </mxCell>
        <mxCell id="K7dTfTRii8d-ZvlL10lm-4" value="&lt;span style=&quot;font-size: 16px;&quot;&gt;author 2&lt;/span&gt;" style="ellipse;whiteSpace=wrap;html=1;aspect=fixed;" vertex="1" parent="1">
          <mxGeometry x="4" y="15" width="80" height="80" as="geometry" />
        </mxCell>
        <mxCell id="K7dTfTRii8d-ZvlL10lm-5" style="edgeStyle=none;curved=1;rounded=0;orthogonalLoop=1;jettySize=auto;html=1;exitX=0.5;exitY=0;exitDx=0;exitDy=0;fontSize=12;startSize=8;endSize=8;" edge="1" parent="1" source="K7dTfTRii8d-ZvlL10lm-7" target="K7dTfTRii8d-ZvlL10lm-2">
          <mxGeometry relative="1" as="geometry" />
        </mxCell>
        <mxCell id="K7dTfTRii8d-ZvlL10lm-6" style="edgeStyle=none;curved=1;rounded=0;orthogonalLoop=1;jettySize=auto;html=1;exitX=0.5;exitY=1;exitDx=0;exitDy=0;fontSize=12;startSize=8;endSize=8;" edge="1" parent="1" source="K7dTfTRii8d-ZvlL10lm-7" target="K7dTfTRii8d-ZvlL10lm-14">
          <mxGeometry relative="1" as="geometry" />
        </mxCell>
        <mxCell id="K7dTfTRii8d-ZvlL10lm-7" value="&lt;span style=&quot;font-size: 16px;&quot;&gt;author 3&lt;/span&gt;" style="ellipse;whiteSpace=wrap;html=1;aspect=fixed;" vertex="1" parent="1">
          <mxGeometry x="137" y="145" width="80" height="80" as="geometry" />
        </mxCell>
        <mxCell id="K7dTfTRii8d-ZvlL10lm-8" style="edgeStyle=none;curved=1;rounded=0;orthogonalLoop=1;jettySize=auto;html=1;exitX=1;exitY=1;exitDx=0;exitDy=0;fontSize=12;startSize=8;endSize=8;" edge="1" parent="1" source="K7dTfTRii8d-ZvlL10lm-9" target="K7dTfTRii8d-ZvlL10lm-4">
          <mxGeometry relative="1" as="geometry" />
        </mxCell>
        <mxCell id="K7dTfTRii8d-ZvlL10lm-9" value="&lt;span style=&quot;font-size: 16px;&quot;&gt;author 4&lt;/span&gt;" style="ellipse;whiteSpace=wrap;html=1;aspect=fixed;" vertex="1" parent="1">
          <mxGeometry x="-150" y="-8" width="80" height="80" as="geometry" />
        </mxCell>
        <mxCell id="K7dTfTRii8d-ZvlL10lm-22" style="rounded=0;orthogonalLoop=1;jettySize=auto;html=1;exitX=0.5;exitY=0;exitDx=0;exitDy=0;entryX=0.5;entryY=1;entryDx=0;entryDy=0;" edge="1" parent="1" source="K7dTfTRii8d-ZvlL10lm-11" target="K7dTfTRii8d-ZvlL10lm-9">
          <mxGeometry relative="1" as="geometry" />
        </mxCell>
        <mxCell id="K7dTfTRii8d-ZvlL10lm-11" value="&lt;span style=&quot;font-size: 16px;&quot;&gt;author 5&lt;/span&gt;" style="ellipse;whiteSpace=wrap;html=1;aspect=fixed;" vertex="1" parent="1">
          <mxGeometry x="-200" y="95" width="80" height="80" as="geometry" />
        </mxCell>
        <mxCell id="K7dTfTRii8d-ZvlL10lm-12" style="edgeStyle=none;curved=1;rounded=0;orthogonalLoop=1;jettySize=auto;html=1;exitX=0;exitY=1;exitDx=0;exitDy=0;fontSize=12;startSize=8;endSize=8;" edge="1" parent="1" source="K7dTfTRii8d-ZvlL10lm-14" target="K7dTfTRii8d-ZvlL10lm-15">
          <mxGeometry relative="1" as="geometry" />
        </mxCell>
        <mxCell id="K7dTfTRii8d-ZvlL10lm-13" style="edgeStyle=none;curved=1;rounded=0;orthogonalLoop=1;jettySize=auto;html=1;exitX=1;exitY=1;exitDx=0;exitDy=0;entryX=0;entryY=0.5;entryDx=0;entryDy=0;fontSize=12;startSize=8;endSize=8;" edge="1" parent="1" source="K7dTfTRii8d-ZvlL10lm-14" target="K7dTfTRii8d-ZvlL10lm-17">
          <mxGeometry relative="1" as="geometry" />
        </mxCell>
        <mxCell id="K7dTfTRii8d-ZvlL10lm-14" value="&lt;span style=&quot;font-size: 16px;&quot;&gt;author 6&lt;/span&gt;" style="ellipse;whiteSpace=wrap;html=1;aspect=fixed;" vertex="1" parent="1">
          <mxGeometry x="60" y="240" width="80" height="80" as="geometry" />
        </mxCell>
        <mxCell id="K7dTfTRii8d-ZvlL10lm-15" value="&lt;span style=&quot;font-size: 16px;&quot;&gt;author 7&lt;/span&gt;" style="ellipse;whiteSpace=wrap;html=1;aspect=fixed;" vertex="1" parent="1">
          <mxGeometry x="-80" y="260" width="80" height="80" as="geometry" />
        </mxCell>
        <mxCell id="K7dTfTRii8d-ZvlL10lm-16" style="edgeStyle=none;curved=1;rounded=0;orthogonalLoop=1;jettySize=auto;html=1;exitX=0.5;exitY=0;exitDx=0;exitDy=0;entryX=1;entryY=1;entryDx=0;entryDy=0;fontSize=12;startSize=8;endSize=8;" edge="1" parent="1" source="K7dTfTRii8d-ZvlL10lm-17" target="K7dTfTRii8d-ZvlL10lm-7">
          <mxGeometry relative="1" as="geometry" />
        </mxCell>
        <mxCell id="K7dTfTRii8d-ZvlL10lm-17" value="&lt;span style=&quot;font-size: 16px;&quot;&gt;author 8&lt;/span&gt;" style="ellipse;whiteSpace=wrap;html=1;aspect=fixed;" vertex="1" parent="1">
          <mxGeometry x="260" y="250" width="80" height="80" as="geometry" />
        </mxCell>
        <mxCell id="K7dTfTRii8d-ZvlL10lm-18" value="&lt;span style=&quot;font-size: 16px;&quot;&gt;author 9&lt;/span&gt;" style="ellipse;whiteSpace=wrap;html=1;aspect=fixed;" vertex="1" parent="1">
          <mxGeometry x="-30" y="140" width="80" height="80" as="geometry" />
        </mxCell>
        <mxCell id="K7dTfTRii8d-ZvlL10lm-21" style="rounded=0;orthogonalLoop=1;jettySize=auto;html=1;exitX=0.5;exitY=0;exitDx=0;exitDy=0;entryX=0.5;entryY=1;entryDx=0;entryDy=0;" edge="1" parent="1" source="K7dTfTRii8d-ZvlL10lm-20" target="K7dTfTRii8d-ZvlL10lm-11">
          <mxGeometry relative="1" as="geometry" />
        </mxCell>
        <mxCell id="K7dTfTRii8d-ZvlL10lm-20" value="&lt;span style=&quot;font-size: 16px;&quot;&gt;author 10&lt;/span&gt;" style="ellipse;whiteSpace=wrap;html=1;aspect=fixed;" vertex="1" parent="1">
          <mxGeometry x="-240" y="240" width="80" height="80" as="geometry" />
        </mxCell>
      </root>
    </mxGraphModel>
  </diagram>
  <diagram id="6zWClyS_isN-MhpuuRqQ" name="publications">
    <mxGraphModel dx="2232" dy="2825" grid="1" gridSize="10" guides="1" tooltips="1" connect="1" arrows="1" fold="1" page="1" pageScale="1" pageWidth="827" pageHeight="1169" math="0" shadow="0">
      <root>
        <mxCell id="0" />
        <mxCell id="1" parent="0" />
        <mxCell id="ygDbbz7BmRCD5anGPOME-23" style="rounded=0;orthogonalLoop=1;jettySize=auto;html=1;exitX=0.5;exitY=1;exitDx=0;exitDy=0;entryX=0.5;entryY=0;entryDx=0;entryDy=0;" edge="1" parent="1" source="ygDbbz7BmRCD5anGPOME-2" target="ygDbbz7BmRCD5anGPOME-22">
          <mxGeometry relative="1" as="geometry" />
        </mxCell>
        <mxCell id="ygDbbz7BmRCD5anGPOME-36" style="rounded=0;orthogonalLoop=1;jettySize=auto;html=1;exitX=0.5;exitY=1;exitDx=0;exitDy=0;" edge="1" parent="1" source="ygDbbz7BmRCD5anGPOME-2">
          <mxGeometry relative="1" as="geometry">
            <mxPoint x="-430" y="440" as="targetPoint" />
          </mxGeometry>
        </mxCell>
        <mxCell id="ygDbbz7BmRCD5anGPOME-2" value="&lt;font style=&quot;font-size: 16px;&quot;&gt;author 1&lt;/font&gt;" style="ellipse;whiteSpace=wrap;html=1;aspect=fixed;" vertex="1" parent="1">
          <mxGeometry x="-410" y="310" width="80" height="80" as="geometry" />
        </mxCell>
        <mxCell id="ygDbbz7BmRCD5anGPOME-38" style="edgeStyle=orthogonalEdgeStyle;rounded=0;orthogonalLoop=1;jettySize=auto;html=1;exitX=0.5;exitY=1;exitDx=0;exitDy=0;" edge="1" parent="1" source="ygDbbz7BmRCD5anGPOME-4">
          <mxGeometry relative="1" as="geometry">
            <mxPoint x="100" y="440" as="targetPoint" />
          </mxGeometry>
        </mxCell>
        <mxCell id="ygDbbz7BmRCD5anGPOME-4" value="&lt;span style=&quot;font-size: 16px;&quot;&gt;author 2&lt;/span&gt;" style="ellipse;whiteSpace=wrap;html=1;aspect=fixed;" vertex="1" parent="1">
          <mxGeometry x="100" y="310" width="80" height="80" as="geometry" />
        </mxCell>
        <mxCell id="ygDbbz7BmRCD5anGPOME-39" style="edgeStyle=orthogonalEdgeStyle;rounded=0;orthogonalLoop=1;jettySize=auto;html=1;exitX=0.5;exitY=1;exitDx=0;exitDy=0;entryX=0.5;entryY=0;entryDx=0;entryDy=0;" edge="1" parent="1" source="ygDbbz7BmRCD5anGPOME-7" target="ygDbbz7BmRCD5anGPOME-29">
          <mxGeometry relative="1" as="geometry" />
        </mxCell>
        <mxCell id="ygDbbz7BmRCD5anGPOME-7" value="&lt;span style=&quot;font-size: 16px;&quot;&gt;author 3&lt;/span&gt;" style="ellipse;whiteSpace=wrap;html=1;aspect=fixed;" vertex="1" parent="1">
          <mxGeometry x="200" y="310" width="80" height="80" as="geometry" />
        </mxCell>
        <mxCell id="ygDbbz7BmRCD5anGPOME-40" style="edgeStyle=orthogonalEdgeStyle;rounded=0;orthogonalLoop=1;jettySize=auto;html=1;exitX=0.5;exitY=1;exitDx=0;exitDy=0;" edge="1" parent="1" source="ygDbbz7BmRCD5anGPOME-9" target="ygDbbz7BmRCD5anGPOME-30">
          <mxGeometry relative="1" as="geometry" />
        </mxCell>
        <mxCell id="ygDbbz7BmRCD5anGPOME-9" value="&lt;span style=&quot;font-size: 16px;&quot;&gt;author 4&lt;/span&gt;" style="ellipse;whiteSpace=wrap;html=1;aspect=fixed;" vertex="1" parent="1">
          <mxGeometry x="340" y="310" width="80" height="80" as="geometry" />
        </mxCell>
        <mxCell id="ygDbbz7BmRCD5anGPOME-25" style="edgeStyle=orthogonalEdgeStyle;rounded=0;orthogonalLoop=1;jettySize=auto;html=1;exitX=0.5;exitY=1;exitDx=0;exitDy=0;entryX=0.5;entryY=0;entryDx=0;entryDy=0;" edge="1" parent="1" source="ygDbbz7BmRCD5anGPOME-11" target="ygDbbz7BmRCD5anGPOME-24">
          <mxGeometry relative="1" as="geometry" />
        </mxCell>
        <mxCell id="ygDbbz7BmRCD5anGPOME-11" value="&lt;span style=&quot;font-size: 16px;&quot;&gt;author 5&lt;/span&gt;" style="ellipse;whiteSpace=wrap;html=1;aspect=fixed;" vertex="1" parent="1">
          <mxGeometry x="-220" y="310" width="80" height="80" as="geometry" />
        </mxCell>
        <mxCell id="ygDbbz7BmRCD5anGPOME-41" style="edgeStyle=orthogonalEdgeStyle;rounded=0;orthogonalLoop=1;jettySize=auto;html=1;exitX=0.5;exitY=1;exitDx=0;exitDy=0;" edge="1" parent="1" source="ygDbbz7BmRCD5anGPOME-14" target="ygDbbz7BmRCD5anGPOME-31">
          <mxGeometry relative="1" as="geometry" />
        </mxCell>
        <mxCell id="ygDbbz7BmRCD5anGPOME-14" value="&lt;span style=&quot;font-size: 16px;&quot;&gt;author 6&lt;/span&gt;" style="ellipse;whiteSpace=wrap;html=1;aspect=fixed;" vertex="1" parent="1">
          <mxGeometry x="470" y="310" width="80" height="80" as="geometry" />
        </mxCell>
        <mxCell id="ygDbbz7BmRCD5anGPOME-37" style="edgeStyle=orthogonalEdgeStyle;rounded=0;orthogonalLoop=1;jettySize=auto;html=1;exitX=0.5;exitY=1;exitDx=0;exitDy=0;entryX=0.5;entryY=0;entryDx=0;entryDy=0;" edge="1" parent="1" source="ygDbbz7BmRCD5anGPOME-15" target="ygDbbz7BmRCD5anGPOME-28">
          <mxGeometry relative="1" as="geometry" />
        </mxCell>
        <mxCell id="ygDbbz7BmRCD5anGPOME-15" value="&lt;span style=&quot;font-size: 16px;&quot;&gt;author 7&lt;/span&gt;" style="ellipse;whiteSpace=wrap;html=1;aspect=fixed;" vertex="1" parent="1">
          <mxGeometry x="20" y="310" width="80" height="80" as="geometry" />
        </mxCell>
        <mxCell id="ygDbbz7BmRCD5anGPOME-27" style="edgeStyle=orthogonalEdgeStyle;rounded=0;orthogonalLoop=1;jettySize=auto;html=1;exitX=0.5;exitY=1;exitDx=0;exitDy=0;entryX=0.5;entryY=0;entryDx=0;entryDy=0;" edge="1" parent="1" source="ygDbbz7BmRCD5anGPOME-17" target="ygDbbz7BmRCD5anGPOME-26">
          <mxGeometry relative="1" as="geometry" />
        </mxCell>
        <mxCell id="ygDbbz7BmRCD5anGPOME-17" value="&lt;span style=&quot;font-size: 16px;&quot;&gt;author 8&lt;/span&gt;" style="ellipse;whiteSpace=wrap;html=1;aspect=fixed;" vertex="1" parent="1">
          <mxGeometry x="-80" y="310" width="80" height="80" as="geometry" />
        </mxCell>
        <mxCell id="ygDbbz7BmRCD5anGPOME-34" style="edgeStyle=orthogonalEdgeStyle;rounded=0;orthogonalLoop=1;jettySize=auto;html=1;exitX=0.5;exitY=1;exitDx=0;exitDy=0;" edge="1" parent="1" source="ygDbbz7BmRCD5anGPOME-18" target="ygDbbz7BmRCD5anGPOME-33">
          <mxGeometry relative="1" as="geometry" />
        </mxCell>
        <mxCell id="ygDbbz7BmRCD5anGPOME-18" value="&lt;span style=&quot;font-size: 16px;&quot;&gt;author 9&lt;/span&gt;" style="ellipse;whiteSpace=wrap;html=1;aspect=fixed;" vertex="1" parent="1">
          <mxGeometry x="-680" y="300" width="80" height="80" as="geometry" />
        </mxCell>
        <mxCell id="ygDbbz7BmRCD5anGPOME-35" style="rounded=0;orthogonalLoop=1;jettySize=auto;html=1;exitX=0.5;exitY=1;exitDx=0;exitDy=0;entryX=0.5;entryY=0;entryDx=0;entryDy=0;" edge="1" parent="1" source="ygDbbz7BmRCD5anGPOME-20" target="ygDbbz7BmRCD5anGPOME-32">
          <mxGeometry relative="1" as="geometry" />
        </mxCell>
        <mxCell id="ygDbbz7BmRCD5anGPOME-20" value="&lt;span style=&quot;font-size: 16px;&quot;&gt;author 10&lt;/span&gt;" style="ellipse;whiteSpace=wrap;html=1;aspect=fixed;" vertex="1" parent="1">
          <mxGeometry x="-550" y="310" width="80" height="80" as="geometry" />
        </mxCell>
        <mxCell id="ygDbbz7BmRCD5anGPOME-22" value="&lt;font style=&quot;font-size: 14px;&quot;&gt;publication 6&lt;/font&gt;" style="whiteSpace=wrap;html=1;aspect=fixed;" vertex="1" parent="1">
          <mxGeometry x="-350" y="440" width="80" height="80" as="geometry" />
        </mxCell>
        <mxCell id="ygDbbz7BmRCD5anGPOME-24" value="&lt;font style=&quot;font-size: 14px;&quot;&gt;publication 1&lt;/font&gt;" style="whiteSpace=wrap;html=1;aspect=fixed;" vertex="1" parent="1">
          <mxGeometry x="-220" y="440" width="80" height="80" as="geometry" />
        </mxCell>
        <mxCell id="ygDbbz7BmRCD5anGPOME-26" value="&lt;font style=&quot;font-size: 14px;&quot;&gt;publication 7&lt;/font&gt;" style="whiteSpace=wrap;html=1;aspect=fixed;" vertex="1" parent="1">
          <mxGeometry x="-80" y="440" width="80" height="80" as="geometry" />
        </mxCell>
        <mxCell id="ygDbbz7BmRCD5anGPOME-28" value="&lt;font style=&quot;font-size: 14px;&quot;&gt;publication 2&lt;/font&gt;" style="whiteSpace=wrap;html=1;aspect=fixed;" vertex="1" parent="1">
          <mxGeometry x="60" y="440" width="80" height="80" as="geometry" />
        </mxCell>
        <mxCell id="ygDbbz7BmRCD5anGPOME-29" value="&lt;font style=&quot;font-size: 14px;&quot;&gt;publication 5&lt;/font&gt;" style="whiteSpace=wrap;html=1;aspect=fixed;" vertex="1" parent="1">
          <mxGeometry x="200" y="440" width="80" height="80" as="geometry" />
        </mxCell>
        <mxCell id="ygDbbz7BmRCD5anGPOME-30" value="&lt;font style=&quot;font-size: 14px;&quot;&gt;publication 3&lt;/font&gt;" style="whiteSpace=wrap;html=1;aspect=fixed;" vertex="1" parent="1">
          <mxGeometry x="340" y="440" width="80" height="80" as="geometry" />
        </mxCell>
        <mxCell id="ygDbbz7BmRCD5anGPOME-31" value="&lt;font style=&quot;font-size: 14px;&quot;&gt;publication 4&lt;/font&gt;" style="whiteSpace=wrap;html=1;aspect=fixed;" vertex="1" parent="1">
          <mxGeometry x="470" y="440" width="80" height="80" as="geometry" />
        </mxCell>
        <mxCell id="ygDbbz7BmRCD5anGPOME-32" value="&lt;font style=&quot;font-size: 14px;&quot;&gt;publication 9&lt;/font&gt;" style="whiteSpace=wrap;html=1;aspect=fixed;" vertex="1" parent="1">
          <mxGeometry x="-470" y="440" width="80" height="80" as="geometry" />
        </mxCell>
        <mxCell id="ygDbbz7BmRCD5anGPOME-33" value="&lt;font style=&quot;font-size: 14px;&quot;&gt;publication 8&lt;/font&gt;" style="whiteSpace=wrap;html=1;aspect=fixed;" vertex="1" parent="1">
          <mxGeometry x="-680" y="440" width="80" height="80" as="geometry" />
        </mxCell>
      </root>
    </mxGraphModel>
  </diagram>
  <diagram id="EzNsQ6tCcg3yZx_dyAYO" name="journals">
    <mxGraphModel dx="2232" dy="2825" grid="1" gridSize="10" guides="1" tooltips="1" connect="1" arrows="1" fold="1" page="1" pageScale="1" pageWidth="827" pageHeight="1169" math="0" shadow="0">
      <root>
        <mxCell id="0" />
        <mxCell id="1" parent="0" />
        <mxCell id="h-qmvQHcJqyyFiodHm5q-35" style="rounded=0;orthogonalLoop=1;jettySize=auto;html=1;exitX=0.5;exitY=1;exitDx=0;exitDy=0;entryX=0.5;entryY=0;entryDx=0;entryDy=0;" edge="1" parent="1" source="h-qmvQHcJqyyFiodHm5q-3" target="h-qmvQHcJqyyFiodHm5q-29">
          <mxGeometry relative="1" as="geometry" />
        </mxCell>
        <mxCell id="h-qmvQHcJqyyFiodHm5q-39" style="rounded=0;orthogonalLoop=1;jettySize=auto;html=1;exitX=0.5;exitY=1;exitDx=0;exitDy=0;entryX=0.5;entryY=0;entryDx=0;entryDy=0;" edge="1" parent="1" source="h-qmvQHcJqyyFiodHm5q-3" target="h-qmvQHcJqyyFiodHm5q-23">
          <mxGeometry relative="1" as="geometry" />
        </mxCell>
        <mxCell id="h-qmvQHcJqyyFiodHm5q-3" value="&lt;span style=&quot;font-size: 16px;&quot;&gt;journal 1&lt;/span&gt;" style="ellipse;whiteSpace=wrap;html=1;aspect=fixed;" vertex="1" parent="1">
          <mxGeometry x="-300" y="320" width="80" height="80" as="geometry" />
        </mxCell>
        <mxCell id="h-qmvQHcJqyyFiodHm5q-41" style="edgeStyle=orthogonalEdgeStyle;rounded=0;orthogonalLoop=1;jettySize=auto;html=1;exitX=0.5;exitY=1;exitDx=0;exitDy=0;entryX=0.5;entryY=0;entryDx=0;entryDy=0;" edge="1" parent="1" source="h-qmvQHcJqyyFiodHm5q-5" target="h-qmvQHcJqyyFiodHm5q-25">
          <mxGeometry relative="1" as="geometry" />
        </mxCell>
        <mxCell id="h-qmvQHcJqyyFiodHm5q-5" value="&lt;span style=&quot;font-size: 16px;&quot;&gt;journal 2&lt;/span&gt;" style="ellipse;whiteSpace=wrap;html=1;aspect=fixed;" vertex="1" parent="1">
          <mxGeometry x="60" y="320" width="80" height="80" as="geometry" />
        </mxCell>
        <mxCell id="h-qmvQHcJqyyFiodHm5q-42" style="edgeStyle=orthogonalEdgeStyle;rounded=0;orthogonalLoop=1;jettySize=auto;html=1;exitX=0.5;exitY=1;exitDx=0;exitDy=0;entryX=0.5;entryY=0;entryDx=0;entryDy=0;" edge="1" parent="1" source="h-qmvQHcJqyyFiodHm5q-7" target="h-qmvQHcJqyyFiodHm5q-27">
          <mxGeometry relative="1" as="geometry" />
        </mxCell>
        <mxCell id="h-qmvQHcJqyyFiodHm5q-7" value="&lt;span style=&quot;font-size: 16px;&quot;&gt;journal 3&lt;/span&gt;" style="ellipse;whiteSpace=wrap;html=1;aspect=fixed;" vertex="1" parent="1">
          <mxGeometry x="290" y="320" width="80" height="80" as="geometry" />
        </mxCell>
        <mxCell id="h-qmvQHcJqyyFiodHm5q-43" style="edgeStyle=orthogonalEdgeStyle;rounded=0;orthogonalLoop=1;jettySize=auto;html=1;exitX=0.5;exitY=1;exitDx=0;exitDy=0;" edge="1" parent="1" source="h-qmvQHcJqyyFiodHm5q-9">
          <mxGeometry relative="1" as="geometry">
            <mxPoint x="380" y="440" as="targetPoint" />
          </mxGeometry>
        </mxCell>
        <mxCell id="h-qmvQHcJqyyFiodHm5q-9" value="&lt;span style=&quot;font-size: 16px;&quot;&gt;journal 4&lt;/span&gt;" style="ellipse;whiteSpace=wrap;html=1;aspect=fixed;" vertex="1" parent="1">
          <mxGeometry x="380" y="320" width="80" height="80" as="geometry" />
        </mxCell>
        <mxCell id="h-qmvQHcJqyyFiodHm5q-36" style="rounded=0;orthogonalLoop=1;jettySize=auto;html=1;exitX=0.5;exitY=1;exitDx=0;exitDy=0;entryX=0.5;entryY=0;entryDx=0;entryDy=0;" edge="1" parent="1" source="h-qmvQHcJqyyFiodHm5q-11" target="h-qmvQHcJqyyFiodHm5q-23">
          <mxGeometry relative="1" as="geometry" />
        </mxCell>
        <mxCell id="h-qmvQHcJqyyFiodHm5q-11" value="&lt;span style=&quot;font-size: 16px;&quot;&gt;journal 5&lt;/span&gt;" style="ellipse;whiteSpace=wrap;html=1;aspect=fixed;" vertex="1" parent="1">
          <mxGeometry x="-210" y="320" width="80" height="80" as="geometry" />
        </mxCell>
        <mxCell id="h-qmvQHcJqyyFiodHm5q-44" style="edgeStyle=orthogonalEdgeStyle;rounded=0;orthogonalLoop=1;jettySize=auto;html=1;exitX=0.5;exitY=1;exitDx=0;exitDy=0;entryX=0.5;entryY=0;entryDx=0;entryDy=0;" edge="1" parent="1" source="h-qmvQHcJqyyFiodHm5q-13" target="h-qmvQHcJqyyFiodHm5q-28">
          <mxGeometry relative="1" as="geometry" />
        </mxCell>
        <mxCell id="h-qmvQHcJqyyFiodHm5q-13" value="&lt;span style=&quot;font-size: 16px;&quot;&gt;journal 6&lt;/span&gt;" style="ellipse;whiteSpace=wrap;html=1;aspect=fixed;" vertex="1" parent="1">
          <mxGeometry x="510" y="320" width="80" height="80" as="geometry" />
        </mxCell>
        <mxCell id="h-qmvQHcJqyyFiodHm5q-45" style="edgeStyle=orthogonalEdgeStyle;rounded=0;orthogonalLoop=1;jettySize=auto;html=1;exitX=0.5;exitY=1;exitDx=0;exitDy=0;" edge="1" parent="1" source="h-qmvQHcJqyyFiodHm5q-15">
          <mxGeometry relative="1" as="geometry">
            <mxPoint x="651" y="440" as="targetPoint" />
          </mxGeometry>
        </mxCell>
        <mxCell id="h-qmvQHcJqyyFiodHm5q-15" value="&lt;span style=&quot;font-size: 16px;&quot;&gt;journal 7&lt;/span&gt;" style="ellipse;whiteSpace=wrap;html=1;aspect=fixed;" vertex="1" parent="1">
          <mxGeometry x="610" y="320" width="80" height="80" as="geometry" />
        </mxCell>
        <mxCell id="h-qmvQHcJqyyFiodHm5q-40" style="rounded=0;orthogonalLoop=1;jettySize=auto;html=1;exitX=0.5;exitY=1;exitDx=0;exitDy=0;entryX=0.5;entryY=0;entryDx=0;entryDy=0;" edge="1" parent="1" source="h-qmvQHcJqyyFiodHm5q-17" target="h-qmvQHcJqyyFiodHm5q-23">
          <mxGeometry relative="1" as="geometry" />
        </mxCell>
        <mxCell id="h-qmvQHcJqyyFiodHm5q-17" value="&lt;span style=&quot;font-size: 16px;&quot;&gt;journal 8&lt;/span&gt;" style="ellipse;whiteSpace=wrap;html=1;aspect=fixed;" vertex="1" parent="1">
          <mxGeometry x="-120" y="320" width="80" height="80" as="geometry" />
        </mxCell>
        <mxCell id="h-qmvQHcJqyyFiodHm5q-46" style="edgeStyle=orthogonalEdgeStyle;rounded=0;orthogonalLoop=1;jettySize=auto;html=1;exitX=0.5;exitY=1;exitDx=0;exitDy=0;" edge="1" parent="1" source="h-qmvQHcJqyyFiodHm5q-19">
          <mxGeometry relative="1" as="geometry">
            <mxPoint x="650" y="450" as="targetPoint" />
          </mxGeometry>
        </mxCell>
        <mxCell id="h-qmvQHcJqyyFiodHm5q-19" value="&lt;span style=&quot;font-size: 16px;&quot;&gt;journal 9&lt;/span&gt;" style="ellipse;whiteSpace=wrap;html=1;aspect=fixed;" vertex="1" parent="1">
          <mxGeometry x="720" y="320" width="80" height="80" as="geometry" />
        </mxCell>
        <mxCell id="h-qmvQHcJqyyFiodHm5q-33" style="rounded=0;orthogonalLoop=1;jettySize=auto;html=1;exitX=0.5;exitY=1;exitDx=0;exitDy=0;entryX=0.5;entryY=0;entryDx=0;entryDy=0;" edge="1" parent="1" source="h-qmvQHcJqyyFiodHm5q-21" target="h-qmvQHcJqyyFiodHm5q-29">
          <mxGeometry relative="1" as="geometry" />
        </mxCell>
        <mxCell id="h-qmvQHcJqyyFiodHm5q-21" value="&lt;span style=&quot;font-size: 16px;&quot;&gt;journal 10&lt;/span&gt;" style="ellipse;whiteSpace=wrap;html=1;aspect=fixed;" vertex="1" parent="1">
          <mxGeometry x="-413" y="320" width="80" height="80" as="geometry" />
        </mxCell>
        <mxCell id="h-qmvQHcJqyyFiodHm5q-23" value="&lt;font style=&quot;font-size: 14px;&quot;&gt;publication 1&lt;/font&gt;" style="whiteSpace=wrap;html=1;aspect=fixed;" vertex="1" parent="1">
          <mxGeometry x="-220" y="440" width="80" height="80" as="geometry" />
        </mxCell>
        <mxCell id="h-qmvQHcJqyyFiodHm5q-25" value="&lt;font style=&quot;font-size: 14px;&quot;&gt;publication 2&lt;/font&gt;" style="whiteSpace=wrap;html=1;aspect=fixed;" vertex="1" parent="1">
          <mxGeometry x="60" y="440" width="80" height="80" as="geometry" />
        </mxCell>
        <mxCell id="h-qmvQHcJqyyFiodHm5q-27" value="&lt;font style=&quot;font-size: 14px;&quot;&gt;publication 3&lt;/font&gt;" style="whiteSpace=wrap;html=1;aspect=fixed;" vertex="1" parent="1">
          <mxGeometry x="340" y="440" width="80" height="80" as="geometry" />
        </mxCell>
        <mxCell id="h-qmvQHcJqyyFiodHm5q-28" value="&lt;font style=&quot;font-size: 14px;&quot;&gt;publication 4&lt;/font&gt;" style="whiteSpace=wrap;html=1;aspect=fixed;" vertex="1" parent="1">
          <mxGeometry x="610" y="440" width="80" height="80" as="geometry" />
        </mxCell>
        <mxCell id="h-qmvQHcJqyyFiodHm5q-29" value="&lt;font style=&quot;font-size: 14px;&quot;&gt;publication 9&lt;/font&gt;" style="whiteSpace=wrap;html=1;aspect=fixed;" vertex="1" parent="1">
          <mxGeometry x="-350" y="440" width="80" height="80" as="geometry" />
        </mxCell>
      </root>
    </mxGraphModel>
  </diagram>
</mxfile>
